<svg xmlns="http://www.w3.org/2000/svg" xml:space="preserve" viewBox="0 0 512 512">
  <path d="m219.9 157.8 6-4.8 30 24 30.2-24 6 4.8 24 19.2 30.1-24v259.8A90 90 0 0 1 256 503a90.2 90.2 0 0 1-90.2-90.2V153l30 24 24-19.2zm94.6 255v-42h-117v42a58.5 58.5 0 0 0 117 0z" style="fill:#ffd3ae"/>
  <path d="M218.6 412.8v-254L195.8 177l-30-24v259.8a90.2 90.2 0 0 0 116.6 86.3 90.3 90.3 0 0 1-63.8-86.3z" style="fill:#e8b995"/>
  <path d="M256 24.8a45.5 45.5 0 0 1 80.2 29.8 45.7 45.7 0 0 1-44 45.7v57.5L286 153l-30 24-30-24-6.1 4.8v-57.5A45.6 45.6 0 1 1 256 24.8z" style="fill:#e6e6e6"/>
  <path d="M252.7 115.6c-.4-8-5.6-15-13.2-17.5a45.7 45.7 0 0 1-2-86.2 45.6 45.6 0 1 0-17.6 88.4v57.5l6-4.8 30 24-3.2-61.4z" style="fill:#ccc"/>
  <path d="M204.2 370.9h103.6a58.5 58.5 0 0 1-103.6 0z" style="fill:#e54728"/>
  <path d="M314.5 370.9v41.9a58.5 58.5 0 0 1-117 0v-42h6.7a58.5 58.5 0 0 0 103.6 0h6.7z" style="fill:#f95428"/>
  <path d="M314.5 361.9h-117c-5 0-9 4-9 9v41.9a67.5 67.5 0 0 0 135 0v-42c0-4.9-4-9-9-9zm-24.7 18a49.3 49.3 0 0 1-67.6 0h67.6zM256 462.2a49.5 49.5 0 0 1-49.5-49.5v-23.3a67.3 67.3 0 0 0 99 0v23.3a49.5 49.5 0 0 1-49.5 49.5zM231.2 341h49.6a9 9 0 1 0 0-17.9h-49.6a9 9 0 1 0 0 18zm0-134h49.6a9 9 0 1 0 0-18h-49.6a9 9 0 1 0 0 18zm0 30.5h49.6a9 9 0 1 0 0-18h-49.6a9 9 0 1 0 0 18z" style="fill:#333"/>
  <path d="M350.1 145a9 9 0 0 0-9.5 1l-24.5 19.5-15-12v-45.2a54.4 54.4 0 0 0 28-92.3 54.6 54.6 0 0 0-73.1-3.7 54.6 54.6 0 1 0-45.1 96v45.2l-15 12-24.5-19.5a9 9 0 0 0-14.6 7v259.8a99.3 99.3 0 0 0 198.4 0V153a9 9 0 0 0-5-8zM184.8 54.5A36.7 36.7 0 0 1 257 44.4a9 9 0 1 0 17.3-5 54.8 54.8 0 0 0-6.2-13.7 36.4 36.4 0 0 1 59.2 29A36.5 36.5 0 0 1 292 91.3h-16.2a9 9 0 1 0 0 18h7.5v35.2a9 9 0 0 0-2.7 1.5L256 165.5 231.5 146a9 9 0 0 0-2.6-1.5v-44.2a9 9 0 0 0-8.7-9 36.5 36.5 0 0 1-35.4-36.7zm152.5 358.2a81.3 81.3 0 0 1-162.6 0V171.6l15.6 12.4a9 9 0 0 0 11.1 0l24.5-19.5 24.5 19.5a9 9 0 0 0 11.2 0l24.5-19.5 24.5 19.5a9 9 0 0 0 11.1 0l15.6-12.4v241.2z" style="fill:#333"/>
</svg>
